<?xml version="1.0" encoding="UTF-8" standalone="no"?>
<svg
   viewBox="0 0 132 125"
   width="132"
   height="125">
  <path
     style="stroke-width:0.283811"
     d="m 112.05023,63.317042 z m 0,0 L 65.842253,22.395041 19.607667,63.33478 v 58.50054 c 0,1.51083 1.220847,2.72281 2.731681,2.72281 H 51.234856 V 98.908716 c 0,-1.51084 1.211978,-2.731681 2.722812,-2.731681 h 23.742564 c 1.510825,0 2.722812,1.220847 2.722812,2.731681 v 25.649414 h 28.904376 c 1.51083,0 2.72282,-1.21197 2.72281,-2.72281 z m -92.442563,0.01774 z"
     id="rect2391" />
  <path
     style="stroke-width:0.283811"
     d="M 65.574112,0 0,58.063067 6.9074803,65.855777 65.842364,13.667421 124.76383,65.855777 131.6579,58.063067 66.097204,0 65.842364,0.29507547 Z"
     id="path2399" />
  <path
     style="stroke-width:0.283811"
     d="M 19.607667,8.357959 H 36.230883 L 36.086032,18.203672 19.607667,33.090063 Z"
     id="rect2404" />
</svg>
