<?xml version="1.0" encoding="UTF-8" standalone="no"?>
<svg
   height="112"
   width="100"
   viewBox="0 0 100 112">
  <path
     style="stroke-width:0.618662"
     d="m 43.870637,109.81132 c -1.359218,-1.22796 -2.317984,-2.48075 -2.130591,-2.78397 0.187399,-0.30322 3.804269,-0.5513 8.037486,-0.5513 8.734162,0 9.339523,0.4118 5.390486,3.66694 -1.928895,1.58994 -2.839707,1.90102 -5.566174,1.90102 -2.875372,0 -3.551409,-0.26337 -5.731207,-2.23269 z m -5.57486,-7.66591 c -0.470486,-0.87911 -0.470486,-1.59553 0,-2.474635 0.622077,-1.162362 1.295367,-1.237328 11.11349,-1.237328 8.676294,0 10.616404,0.165118 11.423472,0.972188 1.150149,1.150145 1.160017,1.232845 0.331759,2.780455 -0.595568,1.11283 -1.39577,1.19665 -11.42348,1.19665 -10.149874,0 -10.821926,-0.0726 -11.445241,-1.23733 z m 0.463997,-7.473486 c -1.686862,-0.982501 -1.382084,-3.579203 0.504271,-4.29639 0.872807,-0.33184 5.587448,-0.603352 10.476973,-0.603352 4.889525,0 9.604167,0.271512 10.476975,0.603352 1.952547,0.742356 2.188942,3.361565 0.390277,4.32418 -1.556867,0.833208 -20.411426,0.809234 -21.848496,-0.02779 z m -2.597129,-8.76637 C 36.031569,85.480224 35.355205,83.18344 34.659613,80.801593 33.964019,78.419744 31.551202,73.269387 29.29779,69.356352 22.029567,56.735116 20.290008,50.653609 21.588182,42.403516 23.437356,30.651721 31.152413,22.681485 43.137627,20.141298 c 5.197229,-1.101515 8.009553,-1.101515 13.206781,0 17.191978,3.643718 25.983444,19.880277 19.979079,36.898453 -0.860855,2.439921 -2.410441,5.454308 -8.87579,17.265895 -1.210635,2.211715 -2.645175,5.830885 -3.187864,8.042601 l -0.986703,4.021301 -2.488918,0.185292 c -3.519431,0.262012 -4.087735,-0.643774 -3.249366,-5.178925 0.810911,-4.386602 2.920548,-9.165924 7.49785,-16.986141 5.145903,-8.791659 6.265075,-12.375393 5.930143,-18.989052 -0.201132,-3.971629 -0.638378,-6.132838 -1.627357,-8.043678 -7.657613,-14.795549 -31.659876,-14.69496 -39.256367,0.164507 -1.572717,3.076388 -2.388633,8.935763 -1.724624,12.385074 0.941226,4.889346 2.165668,7.760486 6.509799,15.264586 4.42736,7.647865 6.267743,11.940752 7.178994,16.745767 0.410995,2.167153 0.378176,3.335412 -0.110234,3.923915 -0.880095,1.060447 -5.447762,1.111629 -5.770405,0.06468 z M 5.3938658,69.703706 C 4.5402241,67.946652 4.2442874,66.673761 4.6099535,66.331882 5.2713275,65.713524 15.204659,61.313751 15.939338,61.313751 c 0.58839,0 2.559267,4.05138 2.559267,5.260882 0,0.50223 -2.012191,1.817956 -4.630039,3.027476 -7.2197574,3.335732 -6.905267,3.331964 -8.4747002,0.101597 z m 80.6935262,0.428833 c -2.807178,-1.203274 -5.10396,-2.532159 -5.10396,-2.953084 0,-1.562479 1.901036,-5.247043 2.707189,-5.247043 1.212107,0 9.842616,3.631594 10.721723,4.511553 0.582756,0.583305 0.487669,1.323447 -0.433743,3.376384 -0.649063,1.446121 -1.541713,2.60021 -1.983685,2.564636 -0.441963,-0.03557 -3.100355,-1.049168 -5.907524,-2.252446 z M 0.1955182,48.09863 C 0.0089546,47.612442 -0.05554092,46.141381 0.05219286,44.82961 L 0.24808588,42.44457 6.3434002,42.266735 c 7.1905988,-0.209787 7.9686718,0.17784 7.7005368,3.836309 l -0.185295,2.528143 -6.6619528,0.175712 c -5.3216286,0.140355 -6.73020338,-0.0019 -7.001171,-0.708269 z m 85.5506688,0.44913 c -0.773766,-0.773773 -0.455045,-5.004676 0.432506,-5.741273 0.562145,-0.466539 2.997036,-0.655366 6.959938,-0.539752 l 6.095321,0.177835 v 3.093308 3.093309 l -6.527826,0.17435 c -3.590295,0.09589 -6.722267,-0.0201 -6.959939,-0.257777 z M 10.915359,27.52758 C 8.2808628,25.618123 6.1253713,23.642712 6.1253713,23.137785 c 0,-1.368336 2.4229574,-4.511689 3.4776958,-4.511689 1.0266319,0 10.1328609,6.546678 10.1328609,7.284747 0,0.719683 -3.077315,5.088486 -3.584254,5.088486 -0.245478,0 -2.601824,-1.562288 -5.236315,-3.471749 z m 70.430771,1.20853 c -0.880009,-1.295051 -1.600021,-2.56642 -1.600021,-2.825267 0,-0.738069 9.106221,-7.284747 10.132854,-7.284747 1.052102,0 3.477699,3.141966 3.477699,4.504786 0,0.81524 -7.641829,6.897427 -9.619746,7.656425 -0.437221,0.167775 -1.506132,-0.74931 -2.390786,-2.051197 z M 25.978465,12.777949 c -1.391814,-2.53595 -2.530568,-5.0456184 -2.530568,-5.5770428 0,-1.1048555 3.591444,-3.5167636 4.875933,-3.2745265 0.470053,0.088642 2.085422,2.4380031 3.589716,5.2207993 l 2.735079,5.059631 -2.341337,1.590981 c -1.287733,0.875042 -2.669142,1.590982 -3.069799,1.590982 -0.400652,0 -1.867215,-2.074868 -3.259024,-4.610824 z M 67.17475,15.797791 64.833406,14.20681 67.568491,9.147179 c 1.504294,-2.7827962 3.119663,-5.1321575 3.589716,-5.2207993 1.284484,-0.2422371 4.875933,2.169671 4.875933,3.2745265 0,1.4649106 -4.957108,10.1878668 -5.789591,10.1878668 -0.400657,0 -1.782067,-0.71594 -3.069799,-1.590982 z M 47.03222,11.602077 C 46.545742,11.015896 46.349218,8.9078122 46.467054,5.5394965 L 46.647711,0.3755771 49.918488,0.18778855 53.189265,0 l -0.177469,6.0650743 -0.17747,6.0650737 -2.528142,0.185296 c -1.645794,0.12062 -2.788438,-0.128347 -3.273964,-0.713367 z"
     id="path2997" />
</svg>
