<?xml version="1.0" encoding="UTF-8" standalone="no"?>
<svg
   viewBox="0 0 147 54"
   width="147"
   height="54">
  <defs
     id="defs8" />
  <path
     style="fill:#666666"
     id="rect2995"
     d="m 76.669515,0 -42.9375,16.15625 17.15625,6.5 16.40625,-6.28125 1.75,1.875 -14.8125,5.65625 22.9375,8.6875 41.937495,-16.4375 z" />
  <path
     style="fill:#666666"
     id="rect2998"
     d="m 48.130215,25.51444 28.78935,10.35406 28.284265,-10.6066 2.52538,13.8896 c 0,0 -19.672665,4.76337 -30.304575,14.64721 -12.39967,-9.05653 -31.31473,-14.89975 -31.31473,-14.89975 z" />
  <path
     style="fill:#666666"
     id="path3001"
     d="m 75.700765,10.4375 -33.625,12.5 c -0.73825,-0.74376 -1.81412,-1.21875 -3.03125,-1.21875 -2.23157,0 -4.03125,1.57863 -4.03125,3.53125 0,1.69931 1.36114,3.1291 3.1875,3.46875 l -2.4375,18 h 7.8125 c -1.81458,-8.31047 -1.53414,-11.26404 -3.03125,-18.15625 1.3814,-0.48674 2.36758,-1.64331 2.5,-3 l 33.625,-12.5 z" />
  <text
     id="text837"
     y="33.303963"
     x="-1.4933361"
     style="font-size:18.6667px;line-height:1.25;font-family:Jost;-inkscape-font-specification:Jost;letter-spacing:0px;word-spacing:0px;fill:#99d834;fill-opacity:1"
     xml:space="preserve"><tspan
       y="33.303963"
       x="-1.4933361"
       id="tspan835">Dlouhodobé</tspan></text>
  <text
     id="text841"
     y="33.517452"
     x="102.47482"
     style="font-size:18.6667px;line-height:1.25;font-family:Jost;-inkscape-font-specification:Jost;letter-spacing:0px;word-spacing:0px;fill:#ffffff"
     xml:space="preserve"><tspan
       y="33.517452"
       x="102.47482"
       id="tspan839">práce</tspan></text>
</svg>
